<?xml version="1.0" encoding="utf-8"?>
<!-- Uploaded to: SVG Repo, www.svgrepo.com, Generator: SVG Repo Mixer Tools -->
<svg fill="#000000" width="800px" height="800px" viewBox="0 0 32 32" version="1.1" xmlns="http://www.w3.org/2000/svg">
<title>filters</title>
<path d="M30.646 1.62c-0.133-0.223-0.372-0.37-0.646-0.37h-22c-0.414 0-0.75 0.336-0.75 0.75 0 0.134 0.035 0.259 0.096 0.368l-0.002-0.004 7.763 13.973v4.52c0 0.292 0.167 0.545 0.411 0.668l0.004 0.002 6.284 3.143c0.096 0.050 0.211 0.080 0.332 0.080 0.002 0 0.003 0 0.005 0h-0c0.001 0 0.001 0 0.002 0 0.413 0 0.748-0.335 0.748-0.748 0-0.001 0-0.001 0-0.002v0-7.663l7.764-13.973c0.059-0.105 0.094-0.23 0.094-0.363 0-0.14-0.039-0.272-0.106-0.384l0.002 0.003zM21.486 15.778c-0.059 0.105-0.093 0.231-0.094 0.364v6.645l-4.785-2.393v-4.252c0-0 0-0.001 0-0.001 0-0.133-0.035-0.258-0.097-0.367l0.002 0.004-7.238-13.028h19.45zM14.214 23.25c-0.414 0-0.75 0.336-0.75 0.75v0 4.787l-3.928-1.965v-3.607c0-0 0-0 0-0.001 0-0.133-0.035-0.258-0.097-0.366l0.002 0.004-6.167-11.102h6.17c0.414 0 0.75-0.336 0.75-0.75s-0.336-0.75-0.75-0.75v0h-7.444c-0.414 0-0.75 0.336-0.75 0.75 0 0.134 0.035 0.259 0.096 0.368l-0.002-0.004 6.691 12.046v3.875c0 0.292 0.167 0.544 0.41 0.668l0.004 0.002 5.428 2.715c0.097 0.050 0.211 0.080 0.333 0.080 0.001 0 0.002 0 0.003 0h-0c0.001 0 0.001 0 0.002 0 0.413 0 0.748-0.335 0.748-0.748 0-0.001 0-0.001 0-0.002v0-6c-0-0.414-0.336-0.75-0.75-0.75v0z"></path>
</svg>