<?xml version="1.0" encoding="iso-8859-1"?>
<!-- Uploaded to: SVG Repo, www.svgrepo.com, Generator: SVG Repo Mixer Tools -->
<svg fill="#000000" height="800px" width="800px" version="1.1" id="Layer_1" xmlns="http://www.w3.org/2000/svg" xmlns:xlink="http://www.w3.org/1999/xlink" 
	 viewBox="0 0 511.991 511.991" xml:space="preserve">
<g>
	<g>
		<path d="M443.729,162.124h-34.133c-2.594,0-5.043,1.178-6.665,3.2l-32.256,40.32l-63.479,14.106v-51.712l62.737-23.518
			c2.85-1.075,4.915-3.584,5.41-6.588l7.347-44.075h26.906c4.719,0,8.533-3.823,8.533-8.533c0-4.71-3.814-8.533-8.533-8.533h-34.133
			c-4.173,0-7.731,3.021-8.414,7.125l-7.731,46.345l-52.122,19.55v-4.753c0-18.816-10.231-35.251-25.395-44.151
			c1.152-9.66,7.518-49.715,33.929-49.715c14.165,0,25.199-4.241,32.794-12.595c11.571-12.732,10.052-30.148,9.976-30.891
			c-0.444-4.659-4.344-8.038-9.25-7.654c-4.668,0.418-8.124,4.557-7.74,9.233c0,0.111,0.802,10.863-5.692,17.929
			c-4.233,4.591-10.991,6.912-20.087,6.912c-37.205,0-47.633,43.307-50.313,60.638c-3.063-0.572-6.204-0.904-9.421-0.904
			s-6.357,0.333-9.421,0.904c-2.68-17.331-13.107-60.638-50.313-60.638c-8.858,0-15.471-2.287-19.644-6.784
			c-6.502-7.014-5.862-17.758-5.837-18.108c0.384-4.676-3.089-8.798-7.765-9.207c-4.787-0.35-8.832,3.055-9.242,7.748
			c-0.068,0.742-1.468,18.287,10.18,31.002c7.543,8.235,18.415,12.416,32.307,12.416c26.291,0,32.751,40.047,33.929,49.715
			c-15.164,8.9-25.395,25.335-25.395,44.151v4.753l-52.122-19.55l-7.731-46.345c-0.683-4.105-4.241-7.125-8.414-7.125h-34.133
			c-4.719,0-8.533,3.823-8.533,8.533c0,4.71,3.814,8.533,8.533,8.533h26.906l7.347,44.075c0.495,3.004,2.56,5.513,5.41,6.588
			l62.737,23.518v51.712l-63.479-14.106l-32.256-40.32c-1.621-2.022-4.07-3.2-6.665-3.2H68.262c-4.719,0-8.533,3.823-8.533,8.533
			s3.814,8.533,8.533,8.533h30.037l31.565,39.467c1.212,1.519,2.918,2.577,4.813,2.995l70.118,15.582v14.967
			c-7.757,4.531-13.542,11.955-15.855,20.855h-43.878c-1.997,0-3.934,0.7-5.47,1.98l-51.2,42.667
			c-3.61,3.012-4.105,8.397-1.092,12.015c1.698,2.022,4.122,3.072,6.571,3.072c1.929,0,3.857-0.648,5.461-1.98l48.819-40.687h40.789
			c0.99,3.806,2.509,7.407,4.651,10.573c-8.269,2.901-15.027,8.849-19.004,16.546c-0.282,0.179-0.597,0.247-0.862,0.461
			l-51.2,42.667c-2.193,1.835-3.328,4.651-3.012,7.492l8.226,74.044l-32.751,57.318c-2.347,4.087-0.922,9.301,3.174,11.639
			c1.331,0.768,2.79,1.126,4.224,1.126c2.97,0,5.845-1.544,7.415-4.301l34.133-59.733c0.905-1.57,1.28-3.379,1.075-5.171
			l-8.021-72.243l34.918-29.107c2.893,10.982,11.068,19.729,21.683,23.45c-3.695,5.453-5.862,12.032-5.862,19.106
			c0,18.825,15.309,34.133,34.133,34.133h68.267c18.825,0,34.133-15.309,34.133-34.133c0-7.074-2.167-13.653-5.862-19.106
			c10.615-3.721,18.79-12.467,21.683-23.45l34.918,29.107l-8.021,72.243c-0.205,1.792,0.171,3.601,1.075,5.171l34.133,59.733
			c1.57,2.756,4.446,4.301,7.415,4.301c1.434,0,2.893-0.358,4.224-1.126c4.096-2.338,5.521-7.552,3.174-11.639l-32.751-57.318
			l8.226-74.044c0.316-2.842-0.819-5.658-3.012-7.492l-51.2-42.667c-0.264-0.213-0.58-0.282-0.862-0.461
			c-3.977-7.697-10.735-13.645-19.004-16.546c2.142-3.166,3.661-6.767,4.651-10.573h40.789l48.819,40.687
			c1.604,1.331,3.533,1.98,5.461,1.98c2.449,0,4.872-1.05,6.571-3.072c3.012-3.618,2.517-9.003-1.092-12.015l-51.2-42.667
			c-1.536-1.28-3.473-1.98-5.47-1.98H323.05c-2.313-8.9-8.098-16.324-15.855-20.855v-14.967l70.118-15.582
			c1.894-0.418,3.601-1.476,4.813-2.995l31.565-39.467h30.037c4.719,0,8.533-3.823,8.533-8.533S448.448,162.124,443.729,162.124z
			 M290.129,401.057h-68.267c-9.412,0-17.067-7.654-17.067-17.067c0-9.412,7.654-17.067,17.067-17.067h68.267
			c9.412,0,17.067,7.654,17.067,17.067C307.195,393.403,299.541,401.057,290.129,401.057z M290.129,298.657h-68.267
			c-9.412,0-17.067-7.654-17.067-17.067c0-9.412,7.654-17.067,17.067-17.067h68.267c9.412,0,17.067,7.654,17.067,17.067
			C307.195,291.003,299.541,298.657,290.129,298.657z"/>
	</g>
</g>
</svg>